<svg width="66" height="12" viewBox="0 0 66 12" fill="none" xmlns="http://www.w3.org/2000/svg">
<path d="M4.14258 9.08105C4.2207 9.10547 4.29883 9.12256 4.37695 9.13232C4.45508 9.13721 4.5332 9.13965 4.61133 9.13965C4.80664 9.13965 4.99463 9.11279 5.17529 9.05908C5.35596 9.00537 5.52441 8.92969 5.68066 8.83203C5.8418 8.72949 5.9834 8.60742 6.10547 8.46582C6.23242 8.31934 6.33496 8.1582 6.41309 7.98242L7.87793 9.45459C7.69238 9.71826 7.47754 9.95508 7.2334 10.165C6.99414 10.375 6.73291 10.5532 6.44971 10.6997C6.17139 10.8462 5.87598 10.9561 5.56348 11.0293C5.25586 11.1074 4.93848 11.1465 4.61133 11.1465C4.05957 11.1465 3.53955 11.0439 3.05127 10.8389C2.56787 10.6338 2.14307 10.3481 1.77686 9.98193C1.41553 9.61572 1.12988 9.18115 0.919922 8.67822C0.709961 8.17041 0.60498 7.61377 0.60498 7.0083C0.60498 6.38818 0.709961 5.82178 0.919922 5.30908C1.12988 4.79639 1.41553 4.35938 1.77686 3.99805C2.14307 3.63672 2.56787 3.35596 3.05127 3.15576C3.53955 2.95557 4.05957 2.85547 4.61133 2.85547C4.93848 2.85547 5.2583 2.89453 5.5708 2.97266C5.8833 3.05078 6.17871 3.16309 6.45703 3.30957C6.74023 3.45605 7.00391 3.63672 7.24805 3.85156C7.49219 4.06152 7.70703 4.29834 7.89258 4.56201L4.14258 9.08105ZM5.16797 4.95752C5.0752 4.92334 4.98242 4.90137 4.88965 4.8916C4.80176 4.88184 4.70898 4.87695 4.61133 4.87695C4.33789 4.87695 4.0791 4.92822 3.83496 5.03076C3.5957 5.12842 3.38574 5.27002 3.20508 5.45557C3.0293 5.64111 2.89014 5.86572 2.7876 6.12939C2.68506 6.38818 2.63379 6.68115 2.63379 7.0083C2.63379 7.08154 2.63623 7.16455 2.64111 7.25732C2.65088 7.3501 2.66309 7.44531 2.67773 7.54297C2.69727 7.63574 2.71924 7.72607 2.74365 7.81396C2.76807 7.90186 2.7998 7.97998 2.83887 8.04834L5.16797 4.95752ZM15.1802 4.70117V6.69336H9.02783V4.70117H15.1802Z" fill="black"/>
<path d="M24.4087 11H17.0552V0.49707H19.1572V8.89795H24.4087V11ZM31.689 6.80322V4.70117C31.689 4.41309 31.6328 4.14209 31.5205 3.88818C31.4131 3.62939 31.2642 3.40479 31.0737 3.21436C30.8833 3.02393 30.6587 2.875 30.3999 2.76758C30.146 2.65527 29.875 2.59912 29.5869 2.59912C29.2988 2.59912 29.0254 2.65527 28.7666 2.76758C28.5127 2.875 28.2905 3.02393 28.1001 3.21436C27.9097 3.40479 27.7583 3.62939 27.646 3.88818C27.5386 4.14209 27.4849 4.41309 27.4849 4.70117V6.80322H31.689ZM33.791 11H31.689V8.89795H27.4849V11H25.3901V4.70117C25.3901 4.12012 25.5 3.57568 25.7197 3.06787C25.9395 2.55518 26.2373 2.1084 26.6133 1.72754C26.9941 1.34668 27.4385 1.04639 27.9463 0.82666C28.459 0.606934 29.0059 0.49707 29.5869 0.49707C30.168 0.49707 30.7124 0.606934 31.2202 0.82666C31.7329 1.04639 32.1797 1.34668 32.5605 1.72754C32.9414 2.1084 33.2417 2.55518 33.4614 3.06787C33.6812 3.57568 33.791 4.12012 33.791 4.70117V11ZM37.7168 2.59912V6.80322H39.8188C40.1069 6.80322 40.3779 6.74951 40.6318 6.64209C40.8857 6.52979 41.1079 6.37842 41.2983 6.18799C41.4888 5.99756 41.6377 5.77539 41.7451 5.52148C41.8574 5.2627 41.9136 4.98926 41.9136 4.70117C41.9136 4.41309 41.8574 4.14209 41.7451 3.88818C41.6377 3.62939 41.4888 3.40479 41.2983 3.21436C41.1079 3.02393 40.8857 2.875 40.6318 2.76758C40.3779 2.65527 40.1069 2.59912 39.8188 2.59912H37.7168ZM37.7168 11H35.6147V0.49707H39.8188C40.2046 0.49707 40.5757 0.54834 40.9321 0.650879C41.2886 0.748535 41.6206 0.890137 41.9282 1.07568C42.2407 1.25635 42.5239 1.47607 42.7778 1.73486C43.0366 1.98877 43.2563 2.27197 43.437 2.58447C43.6226 2.89697 43.7642 3.23145 43.8618 3.58789C43.9644 3.94434 44.0156 4.31543 44.0156 4.70117C44.0156 5.27734 43.9058 5.82178 43.686 6.33447C43.4663 6.84229 43.166 7.28662 42.7852 7.66748C42.4043 8.04834 41.9575 8.34863 41.4448 8.56836C40.937 8.78809 40.395 8.89795 39.8188 8.89795H37.7168V11ZM55.5439 5.79248C55.5439 6.29053 55.478 6.77148 55.3462 7.23535C55.2192 7.69434 55.0386 8.12646 54.8042 8.53174C54.5698 8.93213 54.2866 9.29834 53.9546 9.63037C53.6226 9.9624 53.2563 10.248 52.856 10.4873C52.4556 10.7217 52.0234 10.9023 51.5596 11.0293C51.0957 11.1611 50.6147 11.2271 50.1167 11.2271C49.6187 11.2271 49.1377 11.1611 48.6738 11.0293C48.2148 10.9023 47.7827 10.7217 47.3774 10.4873C46.9771 10.248 46.6108 9.9624 46.2788 9.63037C45.9468 9.29834 45.6611 8.93213 45.4219 8.53174C45.1875 8.12646 45.0044 7.69434 44.8726 7.23535C44.7456 6.77148 44.6821 6.29053 44.6821 5.79248C44.6821 5.29443 44.7456 4.81348 44.8726 4.34961C45.0044 3.88574 45.1875 3.45361 45.4219 3.05322C45.6611 2.65283 45.9468 2.28662 46.2788 1.95459C46.6108 1.62256 46.9771 1.33936 47.3774 1.10498C47.7827 0.870605 48.2148 0.689941 48.6738 0.562988C49.1377 0.431152 49.6187 0.365234 50.1167 0.365234C50.6147 0.365234 51.0957 0.431152 51.5596 0.562988C52.0234 0.689941 52.4556 0.870605 52.856 1.10498C53.2563 1.33936 53.6226 1.62256 53.9546 1.95459C54.2866 2.28662 54.5698 2.65283 54.8042 3.05322C55.0386 3.45361 55.2192 3.88574 55.3462 4.34961C55.478 4.81348 55.5439 5.29443 55.5439 5.79248ZM53.4565 5.79248C53.4565 5.3335 53.3687 4.90137 53.1929 4.49609C53.0171 4.08594 52.7778 3.73193 52.4751 3.43408C52.1772 3.13135 51.8232 2.89209 51.4131 2.71631C51.0078 2.54053 50.5757 2.45264 50.1167 2.45264C49.6528 2.45264 49.2183 2.54053 48.813 2.71631C48.4077 2.89209 48.0537 3.13135 47.751 3.43408C47.4482 3.73193 47.209 4.08594 47.0332 4.49609C46.8574 4.90137 46.7695 5.3335 46.7695 5.79248C46.7695 6.25146 46.8574 6.68359 47.0332 7.08887C47.209 7.48926 47.4482 7.84082 47.751 8.14355C48.0537 8.44629 48.4077 8.68555 48.813 8.86133C49.2183 9.03711 49.6528 9.125 50.1167 9.125C50.5757 9.125 51.0078 9.03711 51.4131 8.86133C51.8232 8.68555 52.1772 8.44629 52.4751 8.14355C52.7778 7.84082 53.0171 7.48926 53.1929 7.08887C53.3687 6.68359 53.4565 6.25146 53.4565 5.79248ZM59.0303 2.59912V6.80322H61.1323C61.4204 6.80322 61.6914 6.74951 61.9453 6.64209C62.1992 6.52979 62.4214 6.37842 62.6118 6.18799C62.8022 5.99756 62.9512 5.77539 63.0586 5.52148C63.1709 5.2627 63.2271 4.98926 63.2271 4.70117C63.2271 4.41309 63.1709 4.14209 63.0586 3.88818C62.9512 3.62939 62.8022 3.40479 62.6118 3.21436C62.4214 3.02393 62.1992 2.875 61.9453 2.76758C61.6914 2.65527 61.4204 2.59912 61.1323 2.59912H59.0303ZM59.0303 11H56.9282V0.49707H61.1323C61.5181 0.49707 61.8892 0.54834 62.2456 0.650879C62.6021 0.748535 62.9341 0.890137 63.2417 1.07568C63.5542 1.25635 63.8374 1.47607 64.0913 1.73486C64.3501 1.98877 64.5698 2.27197 64.7505 2.58447C64.936 2.89697 65.0776 3.23145 65.1753 3.58789C65.2778 3.94434 65.3291 4.31543 65.3291 4.70117C65.3291 5.0625 65.2827 5.41406 65.1899 5.75586C65.1021 6.09766 64.9727 6.42236 64.8018 6.72998C64.6357 7.0376 64.4307 7.3208 64.1865 7.57959C63.9424 7.83838 63.6689 8.06299 63.3662 8.25342L64.5308 11H62.2969L61.3813 8.8833L59.0303 8.89795V11Z" fill="#E38C00"/>
</svg>
